<svg width="24" height="24" viewBox="0 0 24 24"  xmlns="http://www.w3.org/2000/svg">
<path d="M10.279 16.9157L18.1405 9.05417L17.1242 8.05579L10.279 14.9122L6.82386 11.4571L5.83669 12.4554L10.279 16.9157ZM12.0018 23.0833C10.4808 23.0833 9.04777 22.7924 7.70268 22.2106C6.35759 21.6289 5.18131 20.8345 4.17384 19.8274C3.16634 18.8204 2.37158 17.6446 1.78955 16.3001C1.20752 14.9556 0.916504 13.5229 0.916504 12.002C0.916504 10.469 1.20739 9.02816 1.78917 7.67934C2.37095 6.33049 3.16535 5.1572 4.17238 4.15945C5.17943 3.16167 6.35519 2.37177 7.69968 1.78974C9.04418 1.20771 10.4769 0.916695 11.9979 0.916695C13.5308 0.916695 14.9717 1.20758 16.3205 1.78936C17.6693 2.37114 18.8426 3.16068 19.8404 4.15799C20.8381 5.15531 21.628 6.32809 22.2101 7.67633C22.7921 9.02455 23.0831 10.4651 23.0831 11.998C23.0831 13.519 22.7922 14.952 22.2104 16.2971C21.6287 17.6422 20.8391 18.8185 19.8418 19.826C18.8445 20.8335 17.6717 21.6282 16.3235 22.2103C14.9753 22.7923 13.5347 23.0833 12.0018 23.0833ZM11.9998 21.7596C14.716 21.7596 17.0217 20.8091 18.9168 18.908C20.8119 17.0069 21.7594 14.7043 21.7594 12C21.7594 9.28377 20.8119 6.9781 18.9168 5.08301C17.0217 3.18793 14.716 2.2404 11.9998 2.2404C9.29553 2.2404 6.99286 3.18793 5.0918 5.08301C3.19074 6.9781 2.2402 9.28377 2.2402 12C2.2402 14.7043 3.19074 17.0069 5.0918 18.908C6.99286 20.8091 9.29553 21.7596 11.9998 21.7596Z"/>
</svg>
