<svg width="24" height="24" viewBox="0 0 24 24"  xmlns="http://www.w3.org/2000/svg">
<path d="M7.6697 17.2635L11.9998 12.9333L16.3299 17.2635L17.2633 16.3301L12.9331 12L17.2633 7.6699L16.3299 6.73656L11.9998 11.0667L7.6697 6.73656L6.73636 7.6699L11.0665 12L6.73636 16.3301L7.6697 17.2635ZM12.0018 23.0833C10.4808 23.0833 9.04777 22.7924 7.70268 22.2106C6.35759 21.6289 5.18131 20.8345 4.17384 19.8274C3.16634 18.8204 2.37158 17.6446 1.78955 16.3001C1.20752 14.9556 0.916504 13.5229 0.916504 12.002C0.916504 10.469 1.20739 9.02817 1.78917 7.67934C2.37095 6.3305 3.16535 5.15721 4.17238 4.15945C5.17943 3.16168 6.35519 2.37178 7.69968 1.78975C9.04418 1.20772 10.4769 0.916702 11.9979 0.916702C13.5308 0.916702 14.9717 1.20759 16.3205 1.78937C17.6693 2.37115 18.8426 3.16069 19.8404 4.15799C20.8381 5.15532 21.628 6.3281 22.2101 7.67634C22.7921 9.02456 23.0831 10.4651 23.0831 11.9981C23.0831 13.519 22.7922 14.952 22.2104 16.2971C21.6287 17.6422 20.8391 18.8185 19.8418 19.826C18.8445 20.8335 17.6717 21.6282 16.3235 22.2103C14.9753 22.7923 13.5347 23.0833 12.0018 23.0833ZM11.9998 21.7596C14.716 21.7596 17.0217 20.8091 18.9168 18.908C20.8119 17.007 21.7594 14.7043 21.7594 12C21.7594 9.28377 20.8119 6.97811 18.9168 5.08302C17.0217 3.18794 14.716 2.2404 11.9998 2.2404C9.29553 2.2404 6.99286 3.18794 5.0918 5.08302C3.19074 6.97811 2.2402 9.28377 2.2402 12C2.2402 14.7043 3.19074 17.007 5.0918 18.908C6.99286 20.8091 9.29553 21.7596 11.9998 21.7596Z"/>
</svg>
